<svg xmlns="http://www.w3.org/2000/svg" width="800" height="1200" viewBox="0 0 800 1200">
  <defs>
    <linearGradient id="bg" x1="0%" y1="0%" x2="100%" y2="100%">
      <stop offset="0%" stop-color="#3d2e18"/>
      <stop offset="45%" stop-color="#1a1208"/>
      <stop offset="100%" stop-color="#0a0603"/>
    </linearGradient>
    <linearGradient id="shelf-edge" x1="0%" y1="0%" x2="0%" y2="100%">
      <stop offset="0%" stop-color="#5c4528"/>
      <stop offset="100%" stop-color="#2a1f12"/>
    </linearGradient>
    <linearGradient id="book-spine" x1="0%" y1="0%" x2="100%" y2="0%">
      <stop offset="0%" stop-color="#2a1810"/>
      <stop offset="50%" stop-color="#6b3a22"/>
      <stop offset="100%" stop-color="#3d2015"/>
    </linearGradient>
    <pattern id="shelves" width="800" height="140" patternUnits="userSpaceOnUse">
      <rect width="800" height="140" fill="#1a1309"/>
      <rect y="0" width="800" height="3" fill="url(#shelf-edge)" opacity="0.85"/>
      <rect y="118" width="800" height="2" fill="#4a3820" opacity="0.5"/>
      <rect x="18" y="18" width="58" height="96" rx="2" fill="#5c3320" opacity="0.85"/>
      <rect x="84" y="24" width="42" height="90" rx="2" fill="#4a2818" opacity="0.75"/>
      <rect x="136" y="14" width="52" height="100" rx="2" fill="#3d2015" opacity="0.9"/>
      <rect x="198" y="20" width="48" height="94" rx="2" fill="#6b3a22" opacity="0.7"/>
      <rect x="254" y="12" width="62" height="102" rx="2" fill="#5c3320" opacity="0.82"/>
      <rect x="326" y="26" width="38" height="88" rx="2" fill="#4a2818" opacity="0.72"/>
      <rect x="372" y="16" width="55" height="98" rx="2" fill="#3d2015" opacity="0.88"/>
      <rect x="435" y="22" width="46" height="92" rx="2" fill="#6b3a22" opacity="0.68"/>
      <rect x="489" y="13" width="60" height="101" rx="2" fill="#5c3320" opacity="0.8"/>
      <rect x="557" y="19" width="50" height="95" rx="2" fill="#4a2818" opacity="0.74"/>
      <rect x="615" y="15" width="54" height="99" rx="2" fill="#3d2015" opacity="0.86"/>
      <rect x="677" y="23" width="58" height="91" rx="2" fill="#6b3a22" opacity="0.66"/>
      <rect x="741" y="17" width="44" height="97" rx="2" fill="#5c3320" opacity="0.78"/>
    </pattern>
    <radialGradient id="candle-glow" cx="50%" cy="50%" r="50%">
      <stop offset="0%" stop-color="#c9a84c" stop-opacity="0.15"/>
      <stop offset="100%" stop-color="#c9a84c" stop-opacity="0"/>
    </radialGradient>
  </defs>
  <rect width="800" height="1200" fill="url(#bg)"/>
  <rect width="800" height="1200" fill="url(#shelves)" opacity="0.92"/>
  <ellipse cx="120" cy="200" rx="180" ry="140" fill="url(#candle-glow)"/>
  <ellipse cx="680" cy="900" rx="160" ry="120" fill="url(#candle-glow)" opacity="0.7"/>
  <rect width="800" height="1200" fill="url(#bg)" opacity="0.15"/>
</svg>
